# xmcd
# 
# Track frame offsets:
#     150
#     18167
#     30545
#     48912
#     62007
#     74625
#     95757
#     108330
#     126820
#     141512
#     155775
#     173787
#     187090
#     202520
# 
# Disc length: 2960
# 
# Revision: 1
# Processed by: cddbd v1.5.2PL0 Copyright (c) Steve Scherf et al.
# Submitted via: fre:ac v1.0.17
# 
DISCID=c60b8e0e
DTITLE=Patsy Riggir - Moonlight And Roses
DYEAR=1992
DGENRE=Country
TTITLE0=Have I Told You Lately
TTITLE1=True Love
TTITLE2=Roll Along The Kentucky Moon
TTITLE3=Send Me The Pillow
TTITLE4=I Fall To Pieces
TTITLE5=Silver Threads Among The Gold
TTITLE6=Mockingbird Hill
TTITLE7=Memories Are Made Of This
TTITLE8=Vaya Con Dios
TTITLE9=Paper Roses
TTITLE10=Let The Rest Of The World Go By
TTITLE11=Some Sunday Morning
TTITLE12=Roses Medley_Moonlight and Roses, One Dozen Roses
TTITLE13=Whispering Hope
EXTD=YEAR: 1992
EXTT0=
EXTT1=
EXTT2=
EXTT3=
EXTT4=
EXTT5=
EXTT6=
EXTT7=
EXTT8=
EXTT9=
EXTT10=
EXTT11=
EXTT12=
EXTT13=
PLAYORDER=
